<svg width="706" height="134" viewBox="0 0 706 134" fill="none" xmlns="http://www.w3.org/2000/svg">
<path d="M468.182 91V44.4545H483.205C486.508 44.4545 489.265 45.0909 491.477 46.3636C493.705 47.6212 495.379 49.3333 496.5 51.5C497.636 53.6667 498.205 56.1061 498.205 58.8182C498.205 61.5303 497.644 63.9773 496.523 66.1591C495.402 68.3258 493.735 70.0455 491.523 71.3182C489.311 72.5758 486.561 73.2045 483.273 73.2045H471.455V69.3864H483.159C485.598 69.3864 487.621 68.9318 489.227 68.0227C490.833 67.0985 492.03 65.8409 492.818 64.25C493.621 62.6591 494.023 60.8485 494.023 58.8182C494.023 56.7879 493.621 54.9773 492.818 53.3864C492.03 51.7955 490.826 50.5455 489.205 49.6364C487.598 48.7273 485.561 48.2727 483.091 48.2727H472.432V91H468.182ZM508.182 44.4545H513.091L529.977 85H530.386L547.273 44.4545H552.182V91H548.182V53.4318H547.818L532.114 91H528.25L512.545 53.4318H512.182V91H508.182V44.4545ZM589.83 56.0909C589.572 53.5 588.428 51.4394 586.398 49.9091C584.367 48.3788 581.814 47.6136 578.739 47.6136C576.572 47.6136 574.663 47.9848 573.011 48.7273C571.375 49.4697 570.087 50.5 569.148 51.8182C568.223 53.1212 567.761 54.6061 567.761 56.2727C567.761 57.5 568.027 58.5758 568.557 59.5C569.087 60.4242 569.799 61.2197 570.693 61.8864C571.602 62.5379 572.602 63.0985 573.693 63.5682C574.799 64.0379 575.913 64.4318 577.034 64.75L581.943 66.1591C583.428 66.5682 584.913 67.0909 586.398 67.7273C587.883 68.3636 589.239 69.1667 590.466 70.1364C591.708 71.0909 592.701 72.2652 593.443 73.6591C594.201 75.0379 594.58 76.697 594.58 78.6364C594.58 81.1212 593.936 83.3561 592.648 85.3409C591.36 87.3258 589.511 88.9015 587.102 90.0682C584.693 91.2197 581.807 91.7955 578.443 91.7955C575.277 91.7955 572.527 91.2727 570.193 90.2273C567.86 89.1667 566.027 87.7045 564.693 85.8409C563.36 83.9773 562.61 81.8182 562.443 79.3636H566.807C566.958 81.197 567.564 82.75 568.625 84.0227C569.686 85.2955 571.064 86.2652 572.761 86.9318C574.458 87.5833 576.352 87.9091 578.443 87.9091C580.761 87.9091 582.822 87.5227 584.625 86.75C586.443 85.9621 587.867 84.8712 588.898 83.4773C589.943 82.0682 590.466 80.4318 590.466 78.5682C590.466 76.9924 590.057 75.6742 589.239 74.6136C588.42 73.5379 587.277 72.6364 585.807 71.9091C584.352 71.1818 582.663 70.5379 580.739 69.9773L575.17 68.3409C571.519 67.25 568.686 65.7424 566.67 63.8182C564.655 61.8939 563.648 59.4394 563.648 56.4545C563.648 53.9545 564.314 51.7576 565.648 49.8636C566.996 47.9545 568.814 46.4697 571.102 45.4091C573.405 44.3333 575.989 43.7955 578.852 43.7955C581.746 43.7955 584.307 44.3258 586.534 45.3864C588.761 46.447 590.527 47.9091 591.83 49.7727C593.148 51.6212 593.852 53.7273 593.943 56.0909H589.83Z" fill="#AF6EEE"/>
<path d="M445.455 29.4545V106H444V29.4545H445.455Z" fill="#AF6EEE"/>
<path d="M4 17.0875C17.4066 17.0875 30.68 19.7734 43.0613 24.99C55.4426 30.2067 66.6871 37.8515 76.1546 47.4816C82.9032 54.3463 88.6487 62.1287 93.25 70.5835V36.4535H106V120.754H93.25C93.25 108.809 90.9374 96.9825 86.4455 85.9513C81.9535 74.9202 75.3711 64.9014 67.0798 56.4671C66.6002 55.9793 66.1127 55.5001 65.6229 55.024C65.1346 55.4988 64.6505 55.9786 64.1724 56.465C55.881 64.8991 49.2986 74.9185 44.8066 85.9493C40.3146 96.9806 38 108.809 38 120.754H25.25C25.25 107.153 27.8839 93.6806 33.0029 81.1098C38.122 68.5392 45.6285 57.1115 55.0954 47.4816C55.3319 47.2413 55.5708 47.0034 55.8094 46.7654C50.3161 42.7775 44.3869 39.4244 38.1267 36.7867C31.2567 33.8922 24.0745 31.8929 16.75 30.8165V120.754H4V17.0875Z" fill="#589AFF"/>
<path d="M99.625 17C103.146 17 106 19.9032 106 23.4845C106 27.0659 103.146 29.969 99.625 29.969C96.1041 29.969 93.25 27.0659 93.25 23.4845C93.25 19.9032 96.1043 17 99.625 17Z" fill="#589AFF"/>
<path d="M285.5 43.5V46C285.5 49.0766 284.907 52.1239 283.754 54.9678C282.6 57.8115 280.909 60.3976 278.774 62.5771H278.773C276.64 64.7568 274.104 66.4887 271.312 67.6699C268.519 68.8513 265.524 69.46 262.5 69.46C260.124 69.46 257.77 69.937 255.573 70.8662C253.376 71.7956 251.378 73.1586 249.693 74.8789C248.115 76.4917 246.841 78.3897 245.936 80.4756L245.759 80.8955C245.166 82.3566 244.761 83.8865 244.549 85.4463L244.471 86.0205L245.051 86.0137L285.5 85.5059V90.5H239.5V88C239.5 84.9234 240.093 81.876 241.246 79.0322C242.4 76.1884 244.091 73.6024 246.226 71.4229H246.227C248.36 69.2432 250.896 67.5115 253.688 66.3301C256.481 65.1487 259.476 64.54 262.5 64.54C264.876 64.54 267.23 64.0631 269.427 63.1338C271.624 62.2044 273.622 60.8414 275.307 59.1211C276.991 57.4009 278.328 55.3567 279.241 53.1055C279.768 51.8089 280.144 50.458 280.371 49.0811L280.468 48.5H239.5V43.5H285.5Z" fill="#589AFF" stroke="#589AFF"/>
<path d="M355.375 43.5V67.3242C355.375 69.7211 355.844 72.0951 356.754 74.3096C357.665 76.5242 359 78.5371 360.683 80.2324C362.366 81.9274 364.363 83.2726 366.562 84.1904C368.761 85.1082 371.119 85.5811 373.5 85.5811C375.881 85.5811 378.239 85.1082 380.438 84.1904C382.637 83.2726 384.634 81.9274 386.317 80.2324C388 78.5371 389.335 76.5242 390.246 74.3096C391.156 72.0951 391.625 69.7211 391.625 67.3242V43.5H396.5V67.373L396.496 67.6553C396.455 70.5865 395.863 73.4844 394.749 76.1943C393.593 79.0061 391.898 81.5611 389.763 83.7129C387.626 85.8647 385.09 87.5719 382.301 88.7363C379.51 89.9006 376.52 90.5 373.5 90.5C370.48 90.5 367.49 89.9006 364.699 88.7363C361.91 87.5719 359.374 85.8647 357.237 83.7129H357.236C355.101 81.5612 353.407 79.0059 352.251 76.1943C351.137 73.4844 350.545 70.5865 350.504 67.6553L350.5 67.373V43.5H355.375Z" fill="#589AFF" stroke="#589AFF"/>
<path d="M207.094 43.5068V43.5078C219.522 43.8227 229.5 53.9961 229.5 66.5L229.491 67.0938C229.177 79.5205 219.005 89.4974 206.503 89.499L205.905 89.4912H205.906C193.867 89.1861 184.126 79.6297 183.529 67.665L183.508 67.0938L183.5 66.5C183.5 53.7986 193.796 43.5016 206.497 43.5L207.094 43.5068ZM206.5 48.335C196.468 48.335 188.335 56.468 188.335 66.5C188.335 76.5318 196.468 84.665 206.5 84.665C216.532 84.6649 224.665 76.5319 224.665 66.5C224.665 56.468 216.532 48.3351 206.5 48.335Z" fill="#589AFF" stroke="#589AFF"/>
<path d="M318.093 43.5068V43.5078C330.521 43.8225 340.5 53.996 340.5 66.5L340.491 67.0938C340.177 79.5205 330.006 89.4974 317.503 89.499L316.905 89.4912H316.906C304.867 89.1861 295.126 79.6297 294.529 67.665L294.508 67.0938L294.5 66.5C294.5 53.7986 304.796 43.5016 317.497 43.5L318.093 43.5068ZM317.5 48.335C307.468 48.335 299.335 56.468 299.335 66.5C299.335 76.5319 307.469 84.665 317.5 84.665C327.531 84.6649 335.665 76.5319 335.665 66.5C335.665 56.468 327.532 48.3351 317.5 48.335Z" fill="#589AFF" stroke="#589AFF"/>
<path d="M411.25 43.5V66.5C411.25 68.8787 411.709 71.2345 412.6 73.4326V73.4336C413.491 75.6315 414.798 77.6293 416.445 79.3125C417.99 80.8906 419.806 82.1641 421.802 83.0684L422.203 83.2441C424.204 84.0907 426.338 84.554 428.5 84.6162V89.4932C425.901 89.4341 423.332 88.9167 420.906 87.9609L420.393 87.751C417.664 86.5959 415.184 84.9027 413.094 82.7676C411.004 80.6324 409.345 78.0968 408.214 75.3057C407.082 72.5144 406.5 69.5218 406.5 66.5V43.5H411.25Z" fill="#589AFF" stroke="#589AFF"/>
<path d="M126 46C131.909 46 137.761 47.164 143.221 49.4254C148.68 51.6869 153.641 55.0016 157.82 59.1802C161.998 63.3588 165.313 68.3196 167.575 73.7792C169.836 79.2389 171 85.0905 171 91" stroke="#589AFF" stroke-width="6"/>
<rect x="126.5" y="44.5" width="5" height="46" fill="#589AFF" stroke="#589AFF"/>
</svg>
