<svg width="685" height="109" viewBox="0 0 685 109" fill="none" xmlns="http://www.w3.org/2000/svg">
<g clip-path="url(#clip0_40_40)">
<path d="M0 0.091238C13.986 0.091238 27.8329 2.89328 40.7493 8.33532C53.6656 13.7774 65.396 21.7526 75.2726 31.7989C82.3128 38.9602 88.3067 47.0789 93.1068 55.899V20.2941H106.408V108.237H93.1068C93.1068 95.7763 90.6942 83.4388 86.0083 71.9309C81.3221 60.4231 74.4553 49.9714 65.8057 41.1726C65.3053 40.6637 64.7968 40.1638 64.2858 39.6671C63.7764 40.1625 63.2714 40.663 62.7726 41.1704C54.123 49.9689 47.2561 60.4214 42.57 71.9289C37.8838 83.4368 35.4693 95.7761 35.4693 108.237H22.1683C22.1683 94.0483 24.916 79.9942 30.2562 66.8802C35.5965 53.7664 43.4274 41.8449 53.3034 31.7989C53.5502 31.5482 53.7993 31.2999 54.0483 31.0516C48.3175 26.8914 42.1322 23.3934 35.6014 20.6417C28.4346 17.6221 20.942 15.5364 13.301 14.4136V108.237H0V0.091238Z" fill="#F5F5F5"/>
<path d="M359.126 6.76472C359.126 13.8471 357.756 20.8626 355.089 27.4108C352.423 33.9586 348.512 39.9145 343.575 44.9351C338.641 49.956 332.775 53.9457 326.313 56.668C319.851 59.3905 312.921 60.7933 305.922 60.7933C300.695 60.7933 295.517 61.839 290.682 63.8758C285.847 65.913 281.446 68.9007 277.738 72.6739C274.029 76.4473 271.083 80.9334 269.07 85.8753C267.764 89.0821 266.871 92.4407 266.403 95.8659L359.126 94.7081V108.237H252.719V101.473C252.719 94.3904 254.089 87.3748 256.755 80.8268C259.422 74.2788 263.333 68.323 268.27 63.3023C273.204 58.2814 279.07 54.292 285.532 51.5695C291.994 48.8469 298.924 47.4441 305.922 47.4441C311.15 47.4441 316.328 46.3986 321.163 44.3617C325.998 42.3245 330.398 39.3368 334.107 35.5636C337.816 31.7902 340.762 27.3043 342.775 22.3621C343.934 19.5174 344.766 16.5536 345.267 13.5294H252.719V0H359.126V6.76472Z" fill="#F5F5F5"/>
<path d="M518.738 54.8497C518.738 60.1077 519.771 65.3157 521.775 70.1735C523.781 75.0311 526.721 79.4441 530.425 83.1621C534.132 86.8799 538.53 89.8305 543.369 91.8427C548.211 93.855 553.4 94.8905 558.641 94.8905C563.881 94.8905 569.071 93.855 573.913 91.8427C578.752 89.8305 583.15 86.8799 586.857 83.1621C590.561 79.4441 593.5 75.0311 595.507 70.1735C597.511 65.3157 598.544 60.1077 598.544 54.8497V0H611.845V55.6122H611.836C611.74 62.3638 610.37 69.0384 607.795 75.2807C605.121 81.7578 601.202 87.6436 596.263 92.6008C591.321 97.5581 585.456 101.49 579.002 104.173C572.547 106.856 565.628 108.237 558.641 108.237C551.653 108.237 544.735 106.856 538.279 104.173C531.826 101.49 525.96 97.5581 521.019 92.6008C516.08 87.6436 512.161 81.7578 509.487 75.2807C506.911 69.0384 505.541 62.3638 505.446 55.6122H505.437V0H518.738V54.8497Z" fill="#F5F5F5"/>
<path fill-rule="evenodd" clip-rule="evenodd" d="M181.308 0.0173788C210.254 0.752787 233.494 24.5297 233.494 53.7528L233.474 55.1386C232.743 84.1843 209.049 107.505 179.927 107.505L178.543 107.486C150.057 106.761 127.098 83.7233 126.376 55.1386L126.359 53.7528C126.359 24.0663 150.343 0 179.927 0L181.308 0.0173788ZM179.927 13.3469C157.688 13.3469 139.66 31.4376 139.66 53.7528C139.66 76.0675 157.688 94.1584 179.927 94.1584C202.165 94.1582 220.193 76.0675 220.193 53.7528C220.193 31.4376 202.165 13.3472 179.927 13.3469Z" fill="#F5F5F5"/>
<path fill-rule="evenodd" clip-rule="evenodd" d="M434.026 0.0173788C462.971 0.752787 486.213 24.5297 486.213 53.7528L486.193 55.1386C485.461 84.1843 461.768 107.505 432.645 107.505L431.262 107.486C402.776 106.761 379.816 83.7233 379.095 55.1386L379.078 53.7528C379.078 24.0663 403.062 0 432.645 0L434.026 0.0173788ZM432.645 13.3469C410.406 13.3469 392.379 31.4376 392.379 53.7528C392.379 76.0675 410.408 94.1584 432.645 94.1584C454.882 94.1582 472.912 76.0675 472.912 53.7528C472.912 31.4376 454.884 13.3472 432.645 13.3469Z" fill="#F5F5F5"/>
<path d="M645.097 53.3878C645.097 58.646 646.13 63.8535 648.134 68.7116C650.14 73.5692 653.08 77.9822 656.784 81.7C660.491 85.418 664.889 88.3685 669.728 90.3808C674.57 92.3931 679.759 93.4286 685 93.4286V106.776C678.013 106.776 671.094 105.394 664.638 102.711C658.185 100.028 652.32 96.0964 647.378 91.1389C642.439 86.1816 638.52 80.2959 635.846 73.8188C633.173 67.3415 631.796 60.3987 631.796 53.3878V0H645.097V53.3878Z" fill="#F5F5F5"/>
<path d="M99.7572 0C103.43 0 106.408 3.02864 106.408 6.76472C106.408 10.5009 103.43 13.5294 99.7572 13.5294C96.0841 13.5294 93.1067 10.5009 93.1067 6.76472C93.1067 3.02864 96.0843 0 99.7572 0Z" fill="#F5F5F5"/>
</g>
<defs>
<clipPath id="clip0_40_40">
<rect width="685" height="109" fill="white"/>
</clipPath>
</defs>
</svg>
