<svg width="309" height="49" viewBox="0 0 309 49" fill="none" xmlns="http://www.w3.org/2000/svg">
<path d="M0 0.0410156C6.30901 0.0410156 12.5553 1.30065 18.3818 3.74707C24.2083 6.19352 29.4998 9.77869 33.9551 14.2949C37.1309 17.5142 39.8347 21.1639 42 25.1289V9.12305H48V48.6572H42C42 43.0554 40.9117 37.5092 38.7979 32.3359C36.684 27.1627 33.5864 22.4642 29.6846 18.5088C29.4589 18.28 29.2295 18.0553 28.999 17.832C28.7692 18.0547 28.5414 18.2797 28.3164 18.5078C24.4146 22.4631 21.317 27.1619 19.2031 32.335C17.0892 37.5083 16 43.0553 16 48.6572H10C10 42.2786 11.2395 35.9607 13.6484 30.0654C16.0574 24.1702 19.5899 18.811 24.0449 14.2949C24.1562 14.1822 24.2686 14.0706 24.3809 13.959C21.7958 12.0888 19.0056 10.5163 16.0596 9.2793C12.8267 7.92187 9.44681 6.98427 6 6.47949V48.6572H0V0.0410156Z" fill="#013557"/>
<path d="M162 3.04102C162 6.22486 161.382 9.3786 160.179 12.3223C158.976 15.2658 157.212 17.9432 154.985 20.2002C152.759 22.4573 150.113 24.2508 147.198 25.4746C144.283 26.6985 141.157 27.3291 138 27.3291C135.642 27.3291 133.306 27.7992 131.125 28.7148C128.944 29.6306 126.959 30.9737 125.286 32.6699C123.613 34.3662 122.284 36.3829 121.376 38.6045C120.787 40.0461 120.384 41.5559 120.173 43.0957L162 42.5752V48.6572H114V45.6162C114 42.4324 114.618 39.2786 115.821 36.335C117.024 33.3914 118.788 30.714 121.015 28.457C123.241 26.1999 125.887 24.4065 128.802 23.1826C131.717 21.9587 134.843 21.3281 138 21.3281C140.358 21.3281 142.694 20.8581 144.875 19.9424C147.056 19.0266 149.041 17.6835 150.714 15.9873C152.387 14.291 153.716 12.2744 154.624 10.0527C155.147 8.77387 155.522 7.44151 155.748 6.08203H114V0H162V3.04102Z" fill="#013557"/>
<path d="M234 24.6572C234 27.0209 234.466 29.3621 235.37 31.5459C236.275 33.7296 237.601 35.7134 239.272 37.3848C240.944 39.0561 242.928 40.3825 245.111 41.2871C247.295 42.1917 249.636 42.6572 252 42.6572C254.364 42.6572 256.705 42.1917 258.889 41.2871C261.072 40.3825 263.056 39.0561 264.728 37.3848C266.399 35.7134 267.725 33.7296 268.63 31.5459C269.534 29.3621 270 27.0209 270 24.6572V0H276V25H275.996C275.953 28.0351 275.335 31.0356 274.173 33.8418C272.967 36.7535 271.199 39.3994 268.971 41.6279C266.742 43.8564 264.096 45.624 261.185 46.8301C258.273 48.0362 255.152 48.6572 252 48.6572C248.848 48.6572 245.727 48.0362 242.815 46.8301C239.904 45.624 237.258 43.8564 235.029 41.6279C232.801 39.3994 231.033 36.7535 229.827 33.8418C228.665 31.0356 228.047 28.0351 228.004 25H228V0H234V24.6572Z" fill="#013557"/>
<path fill-rule="evenodd" clip-rule="evenodd" d="M81.7871 0.0078125C94.8444 0.338409 105.328 11.0271 105.328 24.1641L105.319 24.7871C104.989 37.8443 94.3009 48.328 81.1641 48.3281L80.54 48.3193C67.6902 47.9937 57.3332 37.6371 57.0078 24.7871L57 24.1641C57 10.8188 67.8188 0 81.1641 0L81.7871 0.0078125ZM81.1641 6C71.1325 6 63 14.1325 63 24.1641C63.0001 34.1955 71.1325 42.3281 81.1641 42.3281C91.1955 42.328 99.328 34.1955 99.3281 24.1641C99.3281 14.1325 91.1956 6.00013 81.1641 6Z" fill="#013557"/>
<path fill-rule="evenodd" clip-rule="evenodd" d="M195.787 0.0078125C208.844 0.338409 219.328 11.0271 219.328 24.1641L219.319 24.7871C218.989 37.8443 208.301 48.328 195.164 48.3281L194.54 48.3193C181.69 47.9937 171.333 37.6371 171.008 24.7871L171 24.1641C171 10.8188 181.819 0 195.164 0L195.787 0.0078125ZM195.164 6C185.132 6 177 14.1325 177 24.1641C177 34.1955 185.133 42.3281 195.164 42.3281C205.195 42.328 213.328 34.1955 213.328 24.1641C213.328 14.1325 205.196 6.00013 195.164 6Z" fill="#013557"/>
<path d="M291 24C291 26.3638 291.466 28.7048 292.37 30.8887C293.275 33.0724 294.601 35.0562 296.272 36.7275C297.944 38.3989 299.928 39.7253 302.111 40.6299C304.295 41.5345 306.636 42 309 42V48C305.848 48 302.727 47.379 299.815 46.1729C296.904 44.9667 294.258 43.1993 292.029 40.9707C289.801 38.7422 288.033 36.0963 286.827 33.1846C285.621 30.2728 285 27.1517 285 24V0H291V24Z" fill="#013557"/>
<path d="M45 0C46.6568 0 48 1.3615 48 3.04102C48 4.72057 46.6569 6.08203 45 6.08203C43.3431 6.08203 42 4.72057 42 3.04102C42 1.3615 43.3432 0 45 0Z" fill="#013557"/>
</svg>
